<?xml version="1.0" encoding="UTF-8"?>
<svg xmlns="http://www.w3.org/2000/svg" width="1200" height="1500" viewBox="0 0 1200 1500">
  <defs>
    <linearGradient id="bg" x1="0" y1="0" x2="1" y2="1">
      <stop offset="0%" stop-color="#060606" />
      <stop offset="55%" stop-color="#111111" />
      <stop offset="100%" stop-color="#0c1410" />
    </linearGradient>
    <linearGradient id="pulse" x1="0" y1="0" x2="1" y2="0">
      <stop offset="0%" stop-color="#82ffb6" />
      <stop offset="100%" stop-color="#ff5853" />
    </linearGradient>
    <filter id="glow" x="-20%" y="-20%" width="140%" height="140%">
      <feGaussianBlur stdDeviation="10" result="blur" />
      <feMerge>
        <feMergeNode in="blur" />
        <feMergeNode in="SourceGraphic" />
      </feMerge>
    </filter>
  </defs>
  
    <rect width="1200" height="1500" fill="#060606" />
    <rect x="72" y="72" width="1056" height="1356" fill="#0d0d0d" stroke="rgba(255,255,255,0.08)" />
    <rect x="100" y="100" width="220" height="10" fill="#82ffb6" />
    <rect x="880" y="1390" width="220" height="10" fill="#ff5853" />
    <path d="M162 310 L438 210 L746 430 L1020 240" fill="none" stroke="rgba(255,255,255,0.18)" stroke-width="4" />
    <path d="M162 598 L384 720 L624 502 L980 634" fill="none" stroke="url(#pulse)" stroke-width="6" />
    <path d="M220 1100 L462 930 L710 1098 L992 920" fill="none" stroke="rgba(255,255,255,0.12)" stroke-width="4" />
    <circle cx="438" cy="210" r="18" fill="#82ffb6" />
    <circle cx="746" cy="430" r="18" fill="#f6f4ee" />
    <circle cx="980" cy="634" r="18" fill="#ff5853" />
    <circle cx="462" cy="930" r="18" fill="#82ffb6" />
    <circle cx="710" cy="1098" r="18" fill="#f6f4ee" />
    <circle cx="992" cy="920" r="18" fill="#ff5853" />
    <text x="148" y="1290" fill="#f6f4ee" font-size="128" font-family="Arial Black, Arial, Helvetica, sans-serif" letter-spacing="6">SIGNAL</text>
    <text x="148" y="1400" fill="#bfc5c0" font-size="42" font-family="Arial, Helvetica, sans-serif" letter-spacing="8">IDENTITY / MEDIA / CHAT / DISTRIBUTION</text>
  
</svg>