<?xml version="1.0" encoding="UTF-8"?>
<svg xmlns="http://www.w3.org/2000/svg" width="1200" height="1500" viewBox="0 0 1200 1500">
  <defs>
    <linearGradient id="bg" x1="0" y1="0" x2="1" y2="1">
      <stop offset="0%" stop-color="#060606" />
      <stop offset="55%" stop-color="#111111" />
      <stop offset="100%" stop-color="#0c1410" />
    </linearGradient>
    <linearGradient id="pulse" x1="0" y1="0" x2="1" y2="0">
      <stop offset="0%" stop-color="#82ffb6" />
      <stop offset="100%" stop-color="#ff5853" />
    </linearGradient>
    <filter id="glow" x="-20%" y="-20%" width="140%" height="140%">
      <feGaussianBlur stdDeviation="10" result="blur" />
      <feMerge>
        <feMergeNode in="blur" />
        <feMergeNode in="SourceGraphic" />
      </feMerge>
    </filter>
  </defs>
  
    <rect width="1200" height="1500" fill="#060606" />
    <rect x="84" y="84" width="1032" height="1332" fill="#0d0d0d" stroke="rgba(255,255,255,0.08)" />
    <circle cx="352" cy="560" r="116" fill="rgba(130,255,182,0.12)" stroke="#82ffb6" stroke-width="4" />
    <circle cx="850" cy="560" r="116" fill="rgba(255,88,83,0.12)" stroke="#ff5853" stroke-width="4" />
    <path d="M466 560 C548 488 656 488 736 560" fill="none" stroke="#f6f4ee" stroke-width="10" />
    <path d="M472 640 C550 716 652 716 732 640" fill="none" stroke="#f6f4ee" stroke-width="10" />
    <path d="M232 888 L320 820 L420 916 L530 780 L644 960 L760 832 L920 954" fill="none" stroke="url(#pulse)" stroke-width="10" filter="url(#glow)" />
    <rect x="150" y="204" width="212" height="12" fill="#82ffb6" />
    <rect x="838" y="1286" width="212" height="12" fill="#ff5853" />
    <text x="150" y="1228" fill="#f6f4ee" font-size="126" font-family="Arial Black, Arial, Helvetica, sans-serif" letter-spacing="6">CALLS</text>
    <text x="150" y="1340" fill="#bfc5c0" font-size="42" font-family="Arial, Helvetica, sans-serif" letter-spacing="8">VOICE / VIDEO / FILES / SESSION FLOW</text>
  
</svg>