<?xml version="1.0" encoding="UTF-8"?>
<svg xmlns="http://www.w3.org/2000/svg" width="1200" height="630" viewBox="0 0 1200 630">
  <defs>
    <linearGradient id="bg" x1="0" y1="0" x2="1" y2="1">
      <stop offset="0%" stop-color="#060606" />
      <stop offset="55%" stop-color="#111111" />
      <stop offset="100%" stop-color="#0c1410" />
    </linearGradient>
    <linearGradient id="pulse" x1="0" y1="0" x2="1" y2="0">
      <stop offset="0%" stop-color="#82ffb6" />
      <stop offset="100%" stop-color="#ff5853" />
    </linearGradient>
    <filter id="glow" x="-20%" y="-20%" width="140%" height="140%">
      <feGaussianBlur stdDeviation="10" result="blur" />
      <feMerge>
        <feMergeNode in="blur" />
        <feMergeNode in="SourceGraphic" />
      </feMerge>
    </filter>
  </defs>
  
    <rect width="1200" height="630" fill="#060606" />
    <rect x="0" y="0" width="1200" height="630" fill="url(#bg)" />
    <path d="M92 86 L378 86 L600 260 L864 126 L1108 280" fill="none" stroke="rgba(255,255,255,0.18)" stroke-width="4" />
    <path d="M94 182 L336 300 L590 160 L876 330 L1080 186" fill="none" stroke="url(#pulse)" stroke-width="6" filter="url(#glow)" />
    <circle cx="600" cy="260" r="14" fill="#f6f4ee" />
    <circle cx="876" cy="330" r="12" fill="#ff5853" />
    <circle cx="336" cy="300" r="12" fill="#82ffb6" />
    <text x="94" y="442" fill="#f6f4ee" font-size="124" font-family="Arial Black, Arial, Helvetica, sans-serif" letter-spacing="6">MUSK XCHAT</text>
    <text x="98" y="502" fill="#bfc5c0" font-size="24" font-family="Arial, Helvetica, sans-serif" letter-spacing="7">WHAT XCHAT IS / ROLLOUT / TRUST GAP / ALTERNATIVES</text>
    <rect x="98" y="534" width="420" height="8" fill="#82ffb6" />
    <rect x="534" y="534" width="160" height="8" fill="#ff5853" />
  
</svg>