<?xml version="1.0" encoding="UTF-8"?>
<svg xmlns="http://www.w3.org/2000/svg" width="512" height="512" viewBox="0 0 512 512">
  <defs>
    <linearGradient id="bg" x1="0" y1="0" x2="1" y2="1">
      <stop offset="0%" stop-color="#060606" />
      <stop offset="55%" stop-color="#111111" />
      <stop offset="100%" stop-color="#0c1410" />
    </linearGradient>
    <linearGradient id="pulse" x1="0" y1="0" x2="1" y2="0">
      <stop offset="0%" stop-color="#82ffb6" />
      <stop offset="100%" stop-color="#ff5853" />
    </linearGradient>
    <filter id="glow" x="-20%" y="-20%" width="140%" height="140%">
      <feGaussianBlur stdDeviation="10" result="blur" />
      <feMerge>
        <feMergeNode in="blur" />
        <feMergeNode in="SourceGraphic" />
      </feMerge>
    </filter>
  </defs>
  
    <rect width="512" height="512" fill="url(#bg)" />
    <rect x="48" y="48" width="416" height="416" rx="24" fill="#0b0b0b" stroke="rgba(255,255,255,0.12)" />
    <path d="M128 132 L208 132 L258 216 L306 132 L384 132 L300 256 L388 384 L308 384 L258 296 L206 384 L126 384 L214 256 Z" fill="#f6f4ee" />
    <path d="M128 102 L196 102" stroke="#82ffb6" stroke-width="10" stroke-linecap="square" />
    <path d="M316 410 L384 410" stroke="#ff5853" stroke-width="10" stroke-linecap="square" />
    <circle cx="104" cy="102" r="10" fill="#82ffb6" />
    <circle cx="408" cy="410" r="10" fill="#ff5853" />
    <path d="M96 256 L152 256" stroke="rgba(255,255,255,0.22)" stroke-width="3" />
    <path d="M360 256 L416 256" stroke="rgba(255,255,255,0.22)" stroke-width="3" />
  
</svg>