<?xml version="1.0" encoding="UTF-8"?>
<svg xmlns="http://www.w3.org/2000/svg" width="1200" height="1500" viewBox="0 0 1200 1500">
  <defs>
    <linearGradient id="bg" x1="0" y1="0" x2="1" y2="1">
      <stop offset="0%" stop-color="#060606" />
      <stop offset="55%" stop-color="#111111" />
      <stop offset="100%" stop-color="#0c1410" />
    </linearGradient>
    <linearGradient id="pulse" x1="0" y1="0" x2="1" y2="0">
      <stop offset="0%" stop-color="#82ffb6" />
      <stop offset="100%" stop-color="#ff5853" />
    </linearGradient>
    <filter id="glow" x="-20%" y="-20%" width="140%" height="140%">
      <feGaussianBlur stdDeviation="10" result="blur" />
      <feMerge>
        <feMergeNode in="blur" />
        <feMergeNode in="SourceGraphic" />
      </feMerge>
    </filter>
  </defs>
  
    <rect width="1200" height="1500" fill="#111111" />
    <rect x="84" y="84" width="1032" height="1332" fill="#0b0b0b" stroke="rgba(255,255,255,0.08)" />
    <path d="M600 268 L896 388 L896 760 C896 938 780 1082 600 1176 C420 1082 304 938 304 760 L304 388 Z" fill="none" stroke="rgba(255,255,255,0.18)" stroke-width="8" />
    <path d="M600 334 L832 428 L832 736 C832 888 742 998 600 1082 C458 998 368 888 368 736 L368 428 Z" fill="rgba(130,255,182,0.08)" />
    <path d="M488 702 L566 780 L722 608" fill="none" stroke="#82ffb6" stroke-width="18" stroke-linecap="square" stroke-linejoin="miter" filter="url(#glow)" />
    <rect x="150" y="212" width="312" height="12" fill="#ff5853" />
    <rect x="734" y="1292" width="312" height="12" fill="#82ffb6" />
    <text x="150" y="1260" fill="#f6f4ee" font-size="126" font-family="Arial Black, Arial, Helvetica, sans-serif" letter-spacing="6">TRUST</text>
    <text x="150" y="1370" fill="#bfc5c0" font-size="42" font-family="Arial, Helvetica, sans-serif" letter-spacing="8">CLAIMS / SKEPTICISM / VALIDATION</text>
  
</svg>